# xmcd
#
# Track frame offsets:
#	150
#	10241
#	22403
#	33698
#	52810
#	65731
#	81249
#	91283
#	98877
#	114031
#	125760
#	135031
#	148010
#	159139
#
# Disc length: 2342 seconds
#
# Revision: 1
# Processed by: cddbd v1.5.1PL0 Copyright (c) Steve Scherf et al.
# Submitted via: audiograbber 1.83.01
#
DISCID=b309240e
DTITLE=Orion Jimmy Ellis - Orion Sings Elvis
DYEAR=1900
DGENRE=
TTITLE0=Are You Sincere
TTITLE1=Give Me The Right
TTITLE2=It Hurts Me
TTITLE3=Until It's Time For You To Go
TTITLE4=I Really Don't Want To Know
TTITLE5=My Boy
TTITLE6=King Of The Whole Wide World
TTITLE7=Follow That Dream
TTITLE8=And I Love You So
TTITLE9=The Wonder Of You
TTITLE10=Anything That's Part Of You
TTITLE11=Without Love
TTITLE12=Paralyzed
TTITLE13=It's Midnight
EXTD=
EXTT0=
EXTT1=
EXTT2=
EXTT3=
EXTT4=
EXTT5=
EXTT6=
EXTT7=
EXTT8=
EXTT9=
EXTT10=
EXTT11=
EXTT12=
EXTT13=
PLAYORDER=
